<svg width="18" height="18" viewBox="0 0 18 18" fill="none" xmlns="http://www.w3.org/2000/svg">
<path d="M17.1562 9.02764H2.8125V2.45342C2.8125 2.13702 2.98828 1.85577 3.26953 1.7503C3.55078 1.64483 3.86719 1.71514 4.07812 1.92608L4.18359 2.03155C3.72656 2.98077 3.86719 4.14092 4.67578 4.94952L5.20312 5.47686C4.99219 5.79327 4.99219 6.21514 5.30859 6.53155C5.44922 6.67217 5.66016 6.74248 5.90625 6.74248C6.11719 6.74248 6.32812 6.67217 6.46875 6.49639L9.84375 3.12139C10.1953 2.80498 10.1953 2.27764 9.84375 1.96123C9.70312 1.78545 9.49219 1.71514 9.28125 1.71514C9.14062 1.71514 8.96484 1.7503 8.82422 1.85577L8.29688 1.32842C7.48828 0.519828 6.32812 0.379203 5.37891 0.836234L5.30859 0.801078C4.78125 0.238578 4.00781 -0.0778286 3.26953 0.0276402C2.00391 0.203421 1.125 1.25811 1.125 2.45342V9.02764H0.84375C0.351562 9.02764 0 9.3792 0 9.87139C0 10.3284 0.351562 10.7151 0.84375 10.7151H1.125V13.5276C1.125 14.4769 1.51172 15.3909 2.25 16.0237V17.1839C2.25 17.6409 2.60156 17.9925 3.09375 17.9925C3.55078 17.9925 3.9375 17.6409 3.9375 17.1839V16.8323C4.11328 16.8675 4.28906 16.8675 4.5 16.9026H13.5C13.6758 16.8675 13.8516 16.8675 14.0625 16.8323V17.1839C14.0625 17.6409 14.4141 17.9925 14.9062 17.9925C15.3633 17.9925 15.75 17.6409 15.75 17.1487V16.0237C16.4531 15.3558 16.875 14.4769 16.875 13.5276V10.7151H17.1562C17.6133 10.7151 18 10.3284 18 9.87139C18 9.3792 17.6133 9.02764 17.1562 9.02764ZM7.10156 2.52373L7.59375 3.01592L6.36328 4.24639L5.87109 3.7542C5.51953 3.40264 5.51953 2.84014 5.87109 2.52373C6.22266 2.17217 6.75 2.17217 7.10156 2.52373ZM15.1875 13.4925C15.1875 14.4417 14.4141 15.18 13.5 15.18H4.5C3.55078 15.18 2.8125 14.4417 2.8125 13.4925V10.7151H15.1875V13.4925Z" fill="#212121"/>
</svg>
