<svg width="18" height="16" viewBox="0 0 18 16" fill="none" xmlns="http://www.w3.org/2000/svg">
<path d="M2.8125 4.625C2.8125 4.02734 3.30469 3.5 3.9375 3.5H7.3125C7.91016 3.5 8.4375 4.02734 8.4375 4.625V5.75H9.5625V4.625C9.5625 4.02734 10.0547 3.5 10.6875 3.5H14.0625C14.6602 3.5 15.1875 4.02734 15.1875 4.625V5.75H16.875V2.375C16.875 1.14453 15.8555 0.125 14.625 0.125H3.375C2.10938 0.125 1.125 1.14453 1.125 2.375V5.75H2.8125V4.625ZM15.75 6.875H2.25C0.984375 6.875 0 7.89453 0 9.125V15.0312C0 15.5234 0.351562 15.875 0.808594 15.875C1.23047 15.875 1.6875 15.5234 1.6875 15.0312V13.625H16.3125V15.0312C16.3125 15.5234 16.6641 15.875 17.1562 15.875C17.6133 15.875 18 15.5234 18 15.0312V9.125C18 7.89453 16.9805 6.875 15.75 6.875ZM16.3125 11.9375H1.6875V9.125C1.6875 8.84375 1.93359 8.5625 2.25 8.5625H15.75C16.0312 8.5625 16.3125 8.84375 16.3125 9.125V11.9375Z" fill="#212121"/>
</svg>
