<svg width="18" height="16" viewBox="0 0 18 16" fill="none" xmlns="http://www.w3.org/2000/svg">
<path d="M9.02872 0.125C4.03653 0.125 0.0287155 3.42969 0.0287155 7.4375C0.0287155 9.125 0.696684 10.6719 1.85684 11.9023C1.36465 13.2734 0.274809 14.4688 0.239653 14.4688C-0.00644077 14.7148 -0.041597 15.0664 0.0638717 15.3828C0.204497 15.6992 0.520903 15.875 0.872465 15.875C3.017 15.875 4.7045 14.9961 5.75918 14.2578C6.74356 14.5742 7.86856 14.75 9.02872 14.75C13.9857 14.75 17.9936 11.4805 17.9936 7.4375C17.9936 3.42969 13.9857 0.125 9.02872 0.125ZM9.02872 13.0625C8.0795 13.0625 7.13028 12.9219 6.25137 12.6406L5.44278 12.3945L4.77481 12.8867C4.28262 13.2383 3.5795 13.625 2.73575 13.9062C3.017 13.4844 3.26309 12.9922 3.43887 12.5L3.82559 11.5156L3.08731 10.7422C2.4545 10.0742 1.71622 8.94922 1.71622 7.4375C1.71622 4.34375 4.98575 1.8125 9.02872 1.8125C13.0365 1.8125 16.3412 4.34375 16.3412 7.4375C16.3412 10.5664 13.0365 13.0625 9.02872 13.0625Z" fill="white"/>
</svg>
