<svg width="18" height="14" viewBox="0 0 18 14" fill="none" xmlns="http://www.w3.org/2000/svg">
<path d="M0 2.5C0 1.26953 0.984375 0.25 2.25 0.25H15.75C16.9805 0.25 18 1.26953 18 2.5V11.5C18 12.7656 16.9805 13.75 15.75 13.75H2.25C0.984375 13.75 0 12.7656 0 11.5V2.5ZM1.6875 2.5V3.30859L7.73438 8.26562C8.47266 8.86328 9.49219 8.86328 10.2305 8.26562L16.3125 3.30859V2.5C16.3125 2.21875 16.0312 1.9375 15.75 1.9375H2.25C1.93359 1.9375 1.6875 2.21875 1.6875 2.5ZM1.6875 5.48828V11.5C1.6875 11.8164 1.93359 12.0625 2.25 12.0625H15.75C16.0312 12.0625 16.3125 11.8164 16.3125 11.5V5.48828L11.3203 9.56641C9.94922 10.6914 8.01562 10.6914 6.64453 9.56641L1.6875 5.48828Z" fill="white"/>
</svg>
