<svg width="18" height="18" viewBox="0 0 18 18" fill="none" xmlns="http://www.w3.org/2000/svg">
<path d="M16.8945 11.2759L13.4492 9.79933C12.6758 9.44776 11.7969 9.69386 11.2695 10.3267L10.3203 11.4868C8.73828 10.5728 7.4375 9.27198 6.52344 7.72511L7.71875 6.77589C8.31641 6.24855 8.5625 5.36964 8.24609 4.63136L6.73438 1.11573C6.38281 0.307139 5.50391 -0.149892 4.625 0.0610456L1.42578 0.799327C0.582031 0.975108 0.0195312 1.71339 0.0195312 2.5923C0.0195312 11.1001 6.91016 17.9907 15.418 17.9907C16.2969 17.9907 17.0352 17.4282 17.1758 16.5845L17.9141 13.3853C18.1602 12.5064 17.7031 11.6275 16.8945 11.2759ZM16.2969 12.9985L15.5586 16.1978C15.5586 16.2329 15.4883 16.3032 15.418 16.3032C7.85938 16.3032 1.67188 10.1509 1.67188 2.5923C1.67188 2.52198 1.74219 2.45167 1.8125 2.45167L5.01172 1.71339L5.04688 1.67823C5.11719 1.67823 5.15234 1.74855 5.1875 1.7837L6.66406 5.22901C6.69922 5.29933 6.69922 5.36964 6.62891 5.4048L4.90625 6.81105C4.625 7.05714 4.51953 7.47901 4.69531 7.83058C5.85547 10.186 7.78906 12.1196 10.1445 13.2798C10.4961 13.4556 10.9531 13.3853 11.1992 13.0689L12.6055 11.3462C12.6406 11.311 12.7109 11.2759 12.7812 11.311L16.2266 12.7876C16.2969 12.8579 16.332 12.9282 16.2969 12.9985Z" fill="white"/>
</svg>
