<svg width="16" height="16" viewBox="0 0 16 16" fill="none" xmlns="http://www.w3.org/2000/svg">
<path d="M14.1875 6.03125V3.00781L9.16016 8L14.1875 13.0273V9.96875C14.1875 9.51172 14.5391 9.125 15.0312 9.125C15.4883 9.125 15.875 9.51172 15.875 9.96875V15.0312C15.875 15.1719 15.8398 15.2773 15.8047 15.3828C15.6992 15.5938 15.5586 15.7344 15.3477 15.8398C15.2422 15.875 15.1367 15.875 15.0312 15.875H9.96875C9.47656 15.875 9.125 15.5234 9.125 15.0312C9.125 14.5742 9.47656 14.1875 9.96875 14.1875H12.9922L8 9.19531L2.97266 14.1875H6.03125C6.48828 14.1875 6.875 14.5742 6.875 15.0312C6.875 15.5234 6.48828 15.875 6.03125 15.875H0.96875C0.828125 15.875 0.722656 15.875 0.617188 15.8398C0.40625 15.7344 0.265625 15.5938 0.160156 15.3828C0.125 15.2773 0.125 15.1719 0.125 15.0312V9.96875C0.125 9.51172 0.476562 9.125 0.96875 9.125C1.42578 9.125 1.8125 9.51172 1.8125 9.96875V13.0273L6.80469 8L1.8125 3.00781V6.03125C1.8125 6.52344 1.42578 6.875 0.96875 6.875C0.476562 6.875 0.125 6.52344 0.125 6.03125V0.96875C0.125 0.863281 0.125 0.757812 0.160156 0.652344C0.265625 0.441406 0.40625 0.300781 0.617188 0.195312C0.722656 0.160156 0.828125 0.125 0.96875 0.125H6.03125C6.48828 0.125 6.875 0.511719 6.875 0.96875C6.875 1.46094 6.48828 1.8125 6.03125 1.8125H2.97266L8 6.83984L12.9922 1.8125H9.96875C9.47656 1.8125 9.125 1.46094 9.125 0.96875C9.125 0.511719 9.47656 0.125 9.96875 0.125H15.0312C15.1367 0.125 15.2422 0.160156 15.3477 0.195312C15.5586 0.300781 15.6992 0.441406 15.8047 0.652344C15.8398 0.757812 15.875 0.863281 15.875 0.96875V6.03125C15.875 6.52344 15.4883 6.875 15.0312 6.875C14.5391 6.875 14.1875 6.52344 14.1875 6.03125Z" fill="#212121"/>
</svg>
